<svg width="20" height="20" viewBox="0 0 20 20" fill="none" xmlns="http://www.w3.org/2000/svg">
<path d="M10.0001 18.3334C8.8473 18.3334 7.76397 18.1145 6.75008 17.6767C5.73619 17.2389 4.85425 16.6453 4.10425 15.8959C3.35425 15.1464 2.76064 14.2645 2.32342 13.25C1.88619 12.2356 1.6673 11.1522 1.66675 10C1.66619 8.8478 1.88508 7.76446 2.32342 6.75002C2.76175 5.73558 3.35536 4.85363 4.10425 4.10419C4.85314 3.35474 5.73508 2.76113 6.75008 2.32335C7.76508 1.88558 8.84842 1.66669 10.0001 1.66669C11.1517 1.66669 12.2351 1.88558 13.2501 2.32335C14.2651 2.76113 15.147 3.35474 15.8959 4.10419C16.6448 4.85363 17.2387 5.73558 17.6776 6.75002C18.1165 7.76446 18.3351 8.8478 18.3334 10V11.2084C18.3334 12.0278 18.0523 12.7259 17.4901 13.3025C16.9279 13.8792 16.2367 14.1672 15.4167 14.1667C14.9306 14.1667 14.4723 14.0625 14.0417 13.8542C13.6112 13.6459 13.2501 13.3472 12.9584 12.9584C12.5556 13.3611 12.1006 13.6634 11.5934 13.865C11.0862 14.0667 10.5551 14.1672 10.0001 14.1667C8.8473 14.1667 7.8648 13.7603 7.05258 12.9475C6.24036 12.1347 5.83397 11.1522 5.83342 10C5.83286 8.8478 6.23925 7.8653 7.05258 7.05252C7.86592 6.23974 8.84842 5.83335 10.0001 5.83335C11.1517 5.83335 12.1345 6.23974 12.9484 7.05252C13.7623 7.8653 14.1684 8.8478 14.1667 10V11.2084C14.1667 11.5695 14.2848 11.875 14.5209 12.125C14.757 12.375 15.0556 12.5 15.4167 12.5C15.7779 12.5 16.0765 12.375 16.3126 12.125C16.5487 11.875 16.6667 11.5695 16.6667 11.2084V10C16.6667 8.13891 16.0209 6.56252 14.7292 5.27085C13.4376 3.97919 11.8612 3.33335 10.0001 3.33335C8.13897 3.33335 6.56258 3.97919 5.27092 5.27085C3.97925 6.56252 3.33342 8.13891 3.33342 10C3.33342 11.8611 3.97925 13.4375 5.27092 14.7292C6.56258 16.0209 8.13897 16.6667 10.0001 16.6667H13.3334C13.5695 16.6667 13.7676 16.7467 13.9276 16.9067C14.0876 17.0667 14.1673 17.2645 14.1667 17.5C14.1662 17.7356 14.0862 17.9336 13.9267 18.0942C13.7673 18.2547 13.5695 18.3345 13.3334 18.3334H10.0001ZM10.0001 12.5C10.6945 12.5 11.2848 12.257 11.7709 11.7709C12.257 11.2847 12.5001 10.6945 12.5001 10C12.5001 9.30558 12.257 8.7153 11.7709 8.22919C11.2848 7.74308 10.6945 7.50002 10.0001 7.50002C9.30564 7.50002 8.71536 7.74308 8.22925 8.22919C7.74314 8.7153 7.50008 9.30558 7.50008 10C7.50008 10.6945 7.74314 11.2847 8.22925 11.7709C8.71536 12.257 9.30564 12.5 10.0001 12.5Z" fill="white"/>
</svg>
