<svg width="20" height="20" viewBox="0 0 20 20" fill="none" xmlns="http://www.w3.org/2000/svg">
<path fill-rule="evenodd" clip-rule="evenodd" d="M13.7933 18.4442C12.5933 18.4 9.19242 17.93 5.63075 14.3692C2.06992 10.8075 1.60075 7.4075 1.55575 6.20666C1.48909 4.37666 2.89075 2.59916 4.50992 1.905C4.7049 1.8208 4.91842 1.78875 5.12953 1.81198C5.34064 1.83521 5.54208 1.91292 5.71409 2.0375C7.04742 3.00916 7.96742 4.47916 8.75742 5.635C8.93124 5.88894 9.00556 6.19795 8.96622 6.50316C8.92687 6.80837 8.77662 7.08844 8.54409 7.29L6.91825 8.4975C6.8397 8.55422 6.78441 8.63752 6.76265 8.73193C6.74089 8.82634 6.75413 8.92545 6.79992 9.01083C7.16825 9.68 7.82325 10.6767 8.57325 11.4267C9.32325 12.1767 10.3674 12.875 11.0833 13.285C11.173 13.3354 11.2786 13.3495 11.3785 13.3244C11.4783 13.2992 11.5647 13.2368 11.6199 13.15L12.6783 11.5392C12.8728 11.2807 13.1599 11.1076 13.4792 11.056C13.7986 11.0044 14.1256 11.0784 14.3916 11.2625C15.5641 12.0742 16.9324 12.9783 17.9341 14.2608C18.0688 14.4341 18.1545 14.6403 18.1822 14.858C18.2099 15.0757 18.1786 15.2969 18.0916 15.4983C17.3941 17.1258 15.6291 18.5117 13.7933 18.4442Z" fill="white"/>
</svg>
